<svg xmlns="http://www.w3.org/2000/svg" xmlns:xlink="http://www.w3.org/1999/xlink" version="1.1" x="0px" y="0px" width="100px" height="100px" viewBox="0 0 100 100" enable-background="new 0 0 100 100" xml:space="preserve">
<g id="Captions">
	<rect x="-330" y="-138" width="185" height="99"/>
	<rect x="-138" y="-174" width="100" height="30"/>
	<text transform="matrix(1 0 0 1 -72 -157.5)" fill="#000000" font-family="'Helvetica'" font-size="2.4">http://thenounproject.com</text>
	<text transform="matrix(1 0 0 1 -130.834 -162.5)"><tspan x="0" y="0" fill="#000000" font-family="'Helvetica-Bold'" font-size="6.1578">The Noun Project</tspan><tspan x="1.12" y="4.8" fill="#000000" font-family="'Helvetica-Bold'" font-size="4">Icon Template</tspan></text>
	<text transform="matrix(1 0 0 1 -316.5 -127.5)" fill="#000000" font-family="'Helvetica-Bold'" font-size="6.1578">Reminders</text>
	<line fill="#000000" stroke="#FFFFFF" stroke-miterlimit="10" x1="-130" y1="-152.5" x2="-120" y2="-152.5"/>
	<line fill="#000000" stroke="#FFFFFF" stroke-miterlimit="10" x1="-317" y1="-121.5" x2="-300" y2="-121.5"/>
	<g>
		<g>
			<g>
				<rect x="-308.802" y="-106.682" fill="#000000" width="8.721" height="8.642"/>
				<path fill="#000000" d="M-302.455-95.688h4.747v-4.703h-4.747V-95.688z M-297.266-95.251h-5.63v-5.579h5.63V-95.251      L-297.266-95.251z M-304.221-93.938h8.279v-8.203h-8.279V-93.938L-304.221-93.938z M-295.5-93.5h-9.163v-9.079h9.163V-93.5      L-295.5-93.5z"/>
				<polygon fill="#000000" points="-304.149,-93.867 -304.292,-94.009 -296.013,-102.213 -295.871,-102.071     "/>
			</g>
		</g>
	</g>
	<rect x="-317" y="-80" fill="none" width="35" height="32.5"/>
	<text transform="matrix(1 0 0 1 -317 -77.8428)"><tspan x="0" y="0" fill="#000000" font-family="'Helvetica-Bold'" font-size="3">Strokes</tspan><tspan x="0" y="5" fill="#000000" font-family="'Helvetica'" font-size="2.4">Try to keep strokes at 4px</tspan><tspan x="0" y="10" fill="#000000" font-family="'Helvetica'" font-size="2.4">Minimum stroke weight is 2px</tspan><tspan x="0" y="14.5" fill="#000000" font-family="'Helvetica'" font-size="2.4">For thicker strokes use even </tspan><tspan x="0" y="17.5" fill="#000000" font-family="'Helvetica'" font-size="2.4">numbers: 6px, 8px etc.</tspan><tspan x="0" y="22" fill="#000000" font-family="'Helvetica-Bold'" font-size="2.4">Remember to expand strokes </tspan><tspan x="0" y="25" fill="#000000" font-family="'Helvetica-Bold'" font-size="2.4">before saving as an SVG </tspan></text>
	<rect x="-274.5" y="-80" fill="none" width="35" height="32.5"/>
	<text transform="matrix(1 0 0 1 -274.5 -77.8428)"><tspan x="0" y="0" fill="#000000" font-family="'Helvetica-Bold'" font-size="3">Size</tspan><tspan x="0" y="5" fill="#000000" font-family="'Helvetica'" font-size="2.4">Cannot be wider or taller than </tspan><tspan x="0" y="8.5" fill="#000000" font-family="'Helvetica'" font-size="2.4">100px (artboard size)</tspan><tspan x="0" y="13.5" fill="#000000" font-family="'Helvetica'" font-size="2.4">Scale your icon to fill as much of </tspan><tspan x="0" y="16.5" fill="#000000" font-family="'Helvetica'" font-size="2.4">the artboard as possible</tspan></text>
	<rect x="-232" y="-80" fill="none" width="35" height="32.5"/>
	<text transform="matrix(1 0 0 1 -232 -77.8428)"><tspan x="0" y="0" fill="#000000" font-family="'Helvetica-Bold'" font-size="3">Ungroup</tspan><tspan x="0" y="5" fill="#000000" font-family="'Helvetica'" font-size="2.4">If your design has more than one </tspan><tspan x="0" y="8" fill="#000000" font-family="'Helvetica'" font-size="2.4">shape, make sure to ungroup</tspan></text>
	<rect x="-188" y="-80" fill="none" width="35" height="32.5"/>
	<text transform="matrix(1 0 0 1 -188 -77.8428)"><tspan x="0" y="0" fill="#000000" font-family="'Helvetica-Bold'" font-size="3">Save as</tspan><tspan x="0" y="5" fill="#000000" font-family="'Helvetica'" font-size="2.4">Save as .SVG and make sure </tspan><tspan x="0" y="8" fill="#000000" font-family="'Helvetica'" font-size="2.4">&#8220;Use Artboards&#8221; is checked</tspan></text>
	<text transform="matrix(1.0074 0 0 1 -263.542 -107.4067)" fill="#000000" font-family="'Helvetica'" font-size="2.5731">100px</text>
	<text transform="matrix(1.0074 0 0 1 -179 -99)" fill="#000000" font-family="'Helvetica-Bold'" font-size="5.1462">.SVG</text>
	<rect x="-264.514" y="-103.185" fill="#000000" width="10.261" height="10.185"/>
	<rect x="-264.477" y="-106.234" fill="#000000" width="0.522" height="2.337"/>
	<rect x="-254.812" y="-106.234" fill="#000000" width="0.523" height="2.337"/>
	<rect x="-265" y="-105.663" fill="#000000" width="11.233" height="0.572"/>
	<g>
		<rect x="-221.805" y="-104.156" fill="#000000" width="10.305" height="10.156"/>
		<rect x="-214.809" y="-109.293" fill="#000000" width="3.308" height="3.261"/>
	</g>
	<rect x="-316.5" y="-115.5" fill="#000000" stroke="#FFFFFF" stroke-miterlimit="10" width="30" height="30"/>
	<rect x="-274.5" y="-115.5" fill="#000000" stroke="#FFFFFF" stroke-miterlimit="10" width="30" height="30"/>
	<rect x="-231.5" y="-115.5" fill="#000000" stroke="#FFFFFF" stroke-miterlimit="10" width="30" height="30"/>
	<rect x="-187.5" y="-115.5" fill="#000000" stroke="#FFFFFF" stroke-miterlimit="10" width="30" height="30"/>
</g>
<g id="Your_Icon">
	<g>
		<path d="M-103.384-86.472c4.111,2.507,8.986,3.344,15.384,3.344s11.545-1.256,15.384-3.342c1.705-0.927,4.28-4.448,6.797-9.002    c10.399-0.473,16.714-6.496,16.857-12.412c0.09-3.687-2.324-8.009-9.133-9.247c0.069-0.708,0.111-1.393,0.111-2.044    c0-3.087,0-11.289-30.017-11.289s-30.017,8.202-30.017,11.29C-118.017-108.524-107.682-89.093-103.384-86.472z M-61.149-117.455    l-0.179,4.458l0,0L-61.149-117.455z M-58.882-112h0.002c3.46,0,5.512,1.996,5.455,4.369c-0.069,2.813-3.322,6.87-9.988,7.956    C-61.516-103.735-59.85-108-58.882-112z M-111.318-119.173c0-2.536,10.439-4.592,23.318-4.592s23.318,2.056,23.318,4.592    s-10.439,4.592-23.318,4.592S-111.318-116.637-111.318-119.173z"/>
		<path d="M-39.191-74.783c-0.486-0.2-1.008-0.19-1.463-0.016l-0.73,0.297l-2.503,1.005c-1.577,0.633-3.438,0.615-5.159-0.098    c-1.707-0.709-2.906-2.082-3.569-3.648c-0.639-1.576-0.77-3.41-0.061-5.119c0.713-1.721,2.017-3.048,3.575-3.717l2.483-1.059    l0.727-0.307c0.442-0.199,0.822-0.557,1.022-1.045c0.405-0.977-0.044-2.093-1.005-2.489l-0.148-0.063    c-2.917-1.014-6.173-0.936-9.26,0.379c-4.48,1.917-7.439,6.021-8.106,10.569l-7.079,2.926L-88-69.905l-17.532-7.264l-7.079-2.926    c-0.667-4.548-3.626-8.652-8.106-10.569c-3.087-1.314-6.343-1.393-9.26-0.379l-0.148,0.063c-0.961,0.396-1.41,1.513-1.005,2.489    c0.2,0.488,0.58,0.846,1.022,1.045l0.727,0.307l2.483,1.059c1.559,0.669,2.862,1.996,3.575,3.717    c0.709,1.709,0.578,3.543-0.061,5.119c-0.663,1.566-1.862,2.939-3.569,3.648c-1.721,0.713-3.582,0.73-5.159,0.098l-2.503-1.005    l-0.73-0.297c-0.455-0.175-0.977-0.185-1.463,0.016c-0.977,0.403-1.447,1.511-1.051,2.472l0.063,0.148    c1.345,2.78,3.702,5.023,6.815,6.279c4.522,1.812,9.52,1.012,13.215-1.735l7.066,2.919l5.067,2.101l-9.925,4.112    c-1.581,0.658-2.883,1.978-3.589,3.68c-1.413,3.414,0.2,7.315,3.615,8.728c1.702,0.707,3.558,0.718,5.141,0.065L-88-55.293    l22.39,9.278c1.583,0.652,3.438,0.642,5.141-0.065c3.415-1.412,5.028-5.313,3.615-8.728c-0.706-1.702-2.008-3.021-3.589-3.68    l-9.925-4.112l5.067-2.101l7.066-2.919c3.695,2.747,8.692,3.548,13.215,1.735c3.113-1.256,5.471-3.499,6.815-6.279l0.063-0.148    C-37.744-73.272-38.215-74.38-39.191-74.783z M-110.146-51.596c-0.504,1.217-1.901,1.794-3.118,1.291    c-1.216-0.504-1.794-1.901-1.29-3.118c0.506-1.217,1.901-1.795,3.117-1.291C-110.22-54.21-109.642-52.812-110.146-51.596z     M-64.563-54.714c1.216-0.504,2.611,0.074,3.117,1.291c0.504,1.217-0.074,2.614-1.29,3.118c-1.217,0.503-2.614-0.074-3.118-1.291    S-65.78-54.21-64.563-54.714z"/>
	</g>
	<path d="M64.479-90.566c-1.031,1.034-1.879,0.685-1.879-0.776v-20.032c0-1.46-0.841-1.81-1.872-0.779L39.135-90.566   c-1.031,1.034-2.003,0.69-2.157-0.761l-4.746-44.03C32.074-136.812,30.75-138,29.292-138h-9.403c-1.464,0-2.72,1.194-2.797,2.655   l-5.031,94.691C11.98-39.194,13.115-38,14.573-38h70.716c1.458,0,2.654-1.197,2.654-2.657v-70.716c0-1.46-0.844-1.81-1.875-0.779   L64.479-90.566z M62.6-53.329c0,1.46-1.19,2.654-2.651,2.654H39.917c-1.464,0-2.654-1.194-2.654-2.654v-20.032   c0-1.46,1.19-2.654,2.654-2.654h20.031c1.461,0,2.651,1.194,2.651,2.654V-53.329z"/>
	<path d="M237.471-94.312l-14.556-8.454l14.556-8.456c0.327-0.189,0.529-0.54,0.529-0.918s-0.202-0.726-0.529-0.915L204.67-131.99   c-0.327-0.189-0.733-0.192-1.061,0.002L188-122.923l-15.606-9.065c-0.33-0.194-0.733-0.192-1.063-0.002l-32.801,18.935   c-0.327,0.189-0.529,0.537-0.529,0.915s0.202,0.729,0.529,0.918l14.556,8.456l-14.556,8.454c-0.327,0.189-0.529,0.54-0.529,0.918   c0,0.378,0.202,0.729,0.529,0.917l15.606,9.007v19.609c0,0.379,0.202,0.729,0.529,0.918l32.801,18.935   c0.022,0.013,0.051,0.018,0.076,0.03c0.031,0.016,0.06,0.026,0.087,0.036c0.12,0.044,0.24,0.074,0.366,0.074   c0.125,0,0.245-0.03,0.362-0.074c0.031-0.01,0.06-0.021,0.087-0.036c0.028-0.01,0.057-0.018,0.08-0.03l32.801-18.935   c0.327-0.189,0.528-0.539,0.528-0.918v-19.603l15.617-9.014c0.327-0.189,0.526-0.54,0.529-0.917   C238-93.772,237.798-94.123,237.471-94.312z M204.144-129.848l30.679,17.713l-14.024,8.147l-30.682-17.713L204.144-129.848z    M141.178-112.135l30.682-17.713l14.021,8.145l-30.685,17.713L141.178-112.135z M141.175-93.399l14.021-8.142l30.685,17.71   l-14.021,8.146L141.175-93.399z M186.937-46.764l-30.682-17.71v-17.772l15.075,8.702c0.166,0.095,0.348,0.144,0.529,0.144   c0.187,0,0.368-0.049,0.534-0.146l14.551-8.452L186.937-46.764z M189.056-85.952c0,0.585-0.476,1.058-1.061,1.058   c-0.586,0-1.062-0.473-1.062-1.058v-33.627c0-0.588,0.476-1.061,1.062-1.061c0.585,0,1.061,0.473,1.061,1.061V-85.952z    M219.734-64.474l-30.679,17.71l0.011-35.227l14.543,8.444c0.327,0.191,0.733,0.191,1.061,0.002l15.064-8.696V-64.474z    M204.144-75.686l-14.024-8.146l30.679-17.715l14.024,8.147L204.144-75.686z"/>
	<g>
		<path d="M325.998-93.083c2.422-5.869,12.434-30.137,13.147-31.879c-0.06-7.199-5.936-13.038-13.147-13.038    s-13.087,5.838-13.146,13.038C313.566-123.221,323.577-98.952,325.998-93.083z"/>
		<path d="M358.812-117.21c-2.485-2.485-5.788-3.854-9.299-3.854c-3.474,0-6.744,1.338-9.216,3.772L327.049-85.45l30.178-12.557    l1.66-0.692c2.435-2.474,3.774-5.743,3.774-9.216C362.663-111.425,361.295-114.727,358.812-117.21z"/>
		<path d="M311.702-117.288c-2.475-2.436-5.741-3.776-9.218-3.776c-3.512,0-6.812,1.368-9.295,3.85    c-5.099,5.103-5.123,13.386-0.077,18.516l8.968,3.731l22.868,9.517L311.702-117.288z"/>
		<path d="M292.745-97.547c-7.25,0-13.146,5.898-13.146,13.147c0,7.248,5.896,13.146,13.146,13.146c0.046,0,0.093,0.006,0.135,0.017    L324.525-84.4l-31.652-13.172C292.827-97.556,292.785-97.547,292.745-97.547z"/>
		<path d="M358.81-51.592c5.092-5.092,5.123-13.379,0.082-18.51l-31.84-13.249l13.243,31.836c2.477,2.435,5.746,3.775,9.22,3.775    C353.026-47.739,356.326-49.108,358.81-51.592z"/>
		<path d="M359.121-71.232c0.042-0.015,0.087-0.021,0.131-0.021c7.249,0,13.149-5.898,13.149-13.146    c0-7.249-5.9-13.147-13.149-13.147c-0.049,0-0.095-0.006-0.142-0.018L327.471-84.4L359.121-71.232z"/>
		<path d="M325.998-38c7.217,0,13.116-5.872,13.147-13.088c0-0.062,0.011-0.12,0.028-0.176l-13.173-31.663l-13.176,31.673    c0.021,0.052,0.031,0.108,0.031,0.166C312.886-43.872,318.781-38,325.998-38z"/>
		<path d="M324.948-83.352l-31.825,13.238c-5.057,5.126-5.032,13.423,0.066,18.521c2.483,2.483,5.783,3.853,9.295,3.853    c3.477,0,6.748-1.342,9.225-3.779L324.948-83.352z"/>
	</g>
	<g>
		<g>
			<path d="M511.827-98.034L464-122.117l-47.827,24.083c-1.948,0.978-2.73,3.353-1.75,5.301c0.983,1.949,3.355,2.73,5.299,1.75     l2.008-1.01v34.823c0,1.814,1.478,3.287,3.291,3.287h11.513h54.932h11.515c1.813,0,3.289-1.473,3.289-3.287v-34.823l2.007,1.01     c0.566,0.287,1.174,0.422,1.772,0.422c1.443,0,2.833-0.795,3.529-2.172C514.558-94.681,513.775-97.056,511.827-98.034z      M492.124-79.65h-56.248v-8.114c0-0.355,0.302-0.657,0.657-0.657h54.932c0.357,0,0.659,0.302,0.659,0.657V-79.65z      M435.876-77.018h56.248v9.1h-56.248V-77.018z M436.533-56.514c-0.355,0-0.657-0.303-0.657-0.656v-8.117h56.248v8.117     c0,0.354-0.302,0.656-0.659,0.656H436.533z M503.636-57.17c0,0.354-0.301,0.656-0.656,0.656h-8.289     c0.044-0.213,0.063-0.432,0.063-0.656v-30.594c0-1.816-1.473-3.289-3.289-3.289h-54.932c-1.814,0-3.287,1.473-3.287,3.289v30.594     c0,0.225,0.02,0.443,0.063,0.656h-8.289c-0.355,0-0.656-0.303-0.656-0.656v-36.148L464-113.281l39.636,19.963V-57.17z"/>
			<path d="M454.956-103.168v5.264c0,1.812,1.471,3.284,3.287,3.284h11.514c1.814,0,3.287-1.473,3.287-3.284v-5.264     c0-1.814-1.473-3.292-3.287-3.292h-11.514C456.427-106.46,454.956-104.982,454.956-103.168z M458.243-103.828h4.443v1.973h-5.103     v-1.313C457.584-103.524,457.885-103.828,458.243-103.828z M457.584-97.904v-1.321h5.103v1.976h-4.443     C457.885-97.25,457.584-97.549,457.584-97.904z M469.757-97.25h-4.443v-1.976h5.101v1.321     C470.414-97.549,470.112-97.25,469.757-97.25z M470.414-103.168v1.313h-5.101v-1.973h4.443     C470.112-103.828,470.414-103.524,470.414-103.168z"/>
		</g>
	</g>
	<g>
		<path d="M-65.17,22.761c-9.56,0-17.948,4.937-22.804,12.39c-4.854-7.453-13.244-12.39-22.801-12.39    c-15.026,0-27.208,12.182-27.208,27.211c0,15.023,12.182,27.259,27.208,27.259c4.68,0,9.072-1.23,12.913-3.23    c-6.388,0-13.02,0-13.053,0c0,0,27.217-38.928,27.263-38.997c0.021-0.025,0.041-0.071,0.067-0.097    c0.682-0.943,1.549-1.755,2.545-2.379c1.011-0.641,2.154-1.096,3.381-1.306c0.503-0.088,1.021-0.139,1.55-0.139    c0.523,0,1.031,0.049,1.529,0.134c4.161,0.692,7.373,4.141,7.702,8.409l7.42,3.674L-67,46.957v4.908c0,0.021,0,0.046,0,0.066    c0,9.23-5.66,17.112-13.731,20.365c4.392,3.062,9.756,4.883,15.523,4.883c15.029,0,27.228-12.185,27.228-27.208    C-37.98,34.942-50.141,22.761-65.17,22.761z"/>
		<circle cx="-75.037" cy="39.658" r="1.365"/>
	</g>
	<path d="M75.004,36H24.998C11.192,36,0.001,47.15,0.001,60.959s11.191,25.055,24.997,25.055c6.23,0,11.919-2.014,16.296-6.014   h17.408c4.381,4,10.066,5.992,16.297,5.992c13.809,0,25-11.188,25-24.995C99.999,47.19,88.808,36,75.004,36z M41,66H30v11H20V66H10   V56h10V45h10v11h11V66z M69.81,76.513c-2.874,0-5.204-2.327-5.204-5.196c0-2.872,2.33-5.199,5.204-5.199   c2.865,0,5.194,2.327,5.194,5.199C75.004,74.186,72.675,76.513,69.81,76.513z M80.198,55.719c-2.869,0-5.194-2.327-5.194-5.199   s2.325-5.199,5.194-5.199c2.875,0,5.202,2.327,5.202,5.199S83.073,55.719,80.198,55.719z"/>
	<g>
		<rect x="48" y="-14" width="4" height="51"/>
	</g>
</g>
</svg>